<?xml version="1.0" standalone="no"?>
<!DOCTYPE svg PUBLIC "-//W3C//DTD SVG 20010904//EN"
 "http://www.w3.org/TR/2001/REC-SVG-20010904/DTD/svg10.dtd">
<svg version="1.0" xmlns="http://www.w3.org/2000/svg"
 width="1095.000000pt" height="1016.000000pt" viewBox="0 0 1095.000000 1016.000000"
 preserveAspectRatio="xMidYMid meet">

<g transform="translate(0.000000,1016.000000) scale(0.100000,-0.100000)"
fill="#000000" stroke="none">
<path d="M1120 8920 c-8 -5 -18 -6 -22 -4 -5 3 -15 -2 -24 -10 -9 -10 -33 -16
-59 -16 -24 0 -46 -4 -49 -9 -3 -5 -20 -11 -38 -14 -50 -8 -67 -12 -74 -20 -4
-4 -16 -7 -26 -7 -10 0 -18 -4 -18 -10 0 -5 -8 -10 -18 -10 -23 0 -80 -27
-106 -49 -10 -9 -21 -15 -25 -15 -11 3 -80 -35 -88 -48 -4 -7 -22 -21 -39 -30
-17 -9 -45 -30 -63 -45 -47 -40 -181 -177 -181 -185 0 -3 -12 -20 -27 -36 -38
-40 -61 -71 -76 -104 -6 -15 -15 -28 -19 -28 -5 0 -8 -6 -8 -14 0 -7 -7 -19
-15 -26 -8 -7 -13 -16 -10 -20 2 -4 -4 -15 -15 -25 -11 -10 -20 -28 -20 -41 0
-13 -5 -26 -10 -29 -6 -3 -10 -17 -10 -31 0 -13 -4 -24 -10 -24 -5 0 -12 -17
-16 -37 -4 -21 -10 -43 -15 -48 -4 -6 -9 -31 -11 -55 -2 -29 -7 -44 -15 -43
-10 2 -13 -694 -13 -3415 0 -2993 2 -3421 15 -3438 8 -10 15 -34 15 -52 0 -18
4 -41 9 -50 5 -9 11 -33 15 -52 3 -19 10 -36 15 -38 6 -2 11 -10 11 -18 0 -8
4 -22 9 -32 5 -9 20 -39 32 -67 12 -27 25 -52 28 -55 3 -3 15 -23 26 -45 11
-22 29 -50 40 -63 11 -13 20 -27 20 -31 0 -7 12 -20 113 -129 23 -26 42 -50
42 -54 0 -4 7 -8 16 -8 8 0 12 -4 9 -10 -3 -5 -1 -10 4 -10 6 0 19 -8 30 -18
10 -9 33 -28 51 -42 17 -14 38 -31 45 -37 8 -7 18 -13 24 -13 6 0 11 -4 11 -9
0 -5 8 -11 17 -15 10 -3 41 -19 68 -35 28 -16 56 -30 63 -30 7 -1 20 -8 28
-16 13 -12 67 -32 113 -41 8 -1 17 -8 21 -14 4 -7 25 -14 46 -16 21 -2 52 -9
69 -16 42 -18 6574 -19 6596 -2 8 7 30 14 50 17 20 2 43 8 50 13 21 13 82 34
102 34 9 0 17 4 17 9 0 9 38 24 53 22 4 -1 10 6 13 14 4 8 11 15 18 15 19 0
86 37 79 44 -4 3 3 6 14 6 12 0 23 3 25 8 2 4 37 33 78 64 41 32 89 71 105 88
17 17 45 45 63 62 17 17 32 35 32 40 0 5 9 19 20 31 50 54 80 93 80 105 0 6 4
12 10 12 5 0 12 11 16 25 3 14 10 25 15 25 5 0 9 9 9 20 0 11 3 20 8 20 10 0
47 76 63 130 7 25 19 52 26 61 7 8 13 30 13 47 0 17 5 34 10 37 6 3 10 28 10
54 0 26 6 53 12 59 8 8 15 50 17 100 3 48 6 1077 8 2287 3 1684 1 2205 -9
2223 -17 33 -47 28 -63 -10 -7 -18 -22 -42 -32 -53 -10 -11 -29 -36 -43 -55
-13 -19 -27 -37 -30 -40 -3 -3 -19 -23 -36 -45 -16 -22 -33 -45 -39 -51 -5 -6
-17 -22 -25 -34 -8 -13 -23 -30 -32 -39 -10 -8 -18 -21 -18 -28 0 -7 -4 -13
-8 -13 -4 0 -15 -12 -24 -27 -9 -16 -25 -38 -35 -50 -10 -12 -36 -47 -58 -79
-22 -31 -45 -62 -50 -68 -6 -6 -20 -27 -32 -46 -12 -19 -30 -44 -40 -55 -10
-11 -27 -33 -37 -50 -11 -16 -25 -34 -33 -38 -7 -4 -13 -13 -13 -20 0 -7 -10
-23 -23 -37 l-22 -25 0 -1815 c0 -1746 -1 -1817 -19 -1875 -10 -33 -22 -68
-27 -77 -5 -10 -9 -25 -9 -33 0 -8 -4 -15 -8 -15 -5 0 -17 -17 -26 -38 -27
-60 -146 -177 -208 -206 -21 -9 -38 -21 -38 -26 0 -6 -11 -10 -24 -10 -14 0
-28 -4 -31 -10 -3 -5 -21 -10 -39 -10 -17 0 -37 -5 -42 -10 -14 -14 -6274 -14
-6288 0 -6 6 -25 10 -43 10 -18 0 -33 4 -33 8 0 4 -10 8 -22 9 -11 1 -24 6
-27 11 -3 5 -24 17 -46 28 -61 29 -185 140 -185 167 0 8 -4 17 -8 19 -14 5
-62 97 -62 118 0 11 -4 20 -9 20 -9 0 -19 33 -26 89 -2 17 -9 39 -14 50 -8 14
-11 1000 -11 3218 0 2759 2 3203 15 3238 8 22 14 57 15 77 0 20 6 43 13 50 6
7 13 22 15 33 4 27 54 125 64 125 4 0 8 4 8 10 0 13 96 110 140 141 49 34 100
60 100 52 0 -5 4 -2 9 5 5 8 20 15 35 15 14 1 26 5 26 10 0 4 9 7 19 7 11 0
21 5 23 10 2 7 919 10 2781 10 1843 0 2777 3 2777 10 0 6 6 10 13 10 12 0 40
23 124 101 17 16 34 29 38 29 3 0 16 10 28 23 19 20 86 77 176 152 13 11 45
38 71 60 26 22 64 54 85 70 20 17 55 47 77 68 22 20 44 37 49 37 4 0 29 20 54
44 50 49 58 80 23 90 -38 10 -6311 7 -6328 -4z"/>
</g>
</svg>
