<?xml version="1.0" standalone="no"?>
<!DOCTYPE svg PUBLIC "-//W3C//DTD SVG 20010904//EN"
 "http://www.w3.org/TR/2001/REC-SVG-20010904/DTD/svg10.dtd">
<svg version="1.0" xmlns="http://www.w3.org/2000/svg"
 width="1095.000000pt" height="1016.000000pt" viewBox="0 0 1095.000000 1016.000000"
 preserveAspectRatio="xMidYMid meet">

<g transform="translate(0.000000,1016.000000) scale(0.100000,-0.100000)"
fill="#000000" stroke="none">
<path d="M10604 10145 c-4 -8 -11 -15 -17 -15 -5 0 -26 -12 -46 -27 -20 -16
-39 -27 -43 -25 -5 1 -8 -2 -8 -8 0 -5 -8 -10 -18 -10 -10 0 -24 -9 -32 -20
-8 -11 -18 -20 -22 -20 -8 0 -87 -48 -98 -60 -3 -3 -25 -16 -50 -29 -25 -13
-54 -32 -66 -42 -11 -11 -25 -19 -31 -19 -5 0 -22 -11 -37 -25 -15 -14 -31
-25 -37 -25 -5 0 -19 -9 -31 -20 -12 -11 -28 -20 -35 -20 -7 0 -17 -9 -23 -20
-6 -11 -17 -20 -25 -20 -8 0 -15 -4 -15 -10 0 -5 -6 -10 -13 -10 -8 0 -24 -9
-37 -20 -13 -11 -43 -30 -67 -42 -24 -12 -43 -25 -43 -30 0 -4 -18 -17 -40
-28 -22 -11 -40 -25 -40 -30 0 -6 -7 -10 -15 -10 -8 0 -15 -4 -15 -10 0 -5 -6
-10 -12 -11 -7 0 -47 -25 -88 -55 -41 -30 -100 -71 -130 -91 -30 -20 -56 -40
-58 -45 -2 -4 -9 -8 -15 -8 -7 0 -30 -16 -52 -36 -22 -19 -49 -39 -60 -44 -38
-18 -66 -39 -130 -95 -21 -19 -44 -35 -50 -35 -5 0 -22 -11 -37 -25 -15 -14
-31 -25 -36 -25 -5 0 -23 -13 -38 -29 -16 -16 -41 -36 -55 -43 -30 -16 -92
-62 -127 -95 -12 -13 -25 -23 -28 -23 -3 0 -10 -5 -17 -10 -53 -45 -73 -60
-81 -60 -5 0 -18 -10 -30 -23 -11 -12 -43 -38 -71 -57 -27 -18 -57 -42 -66
-52 -9 -10 -20 -18 -25 -18 -5 0 -20 -12 -33 -25 -13 -14 -28 -25 -33 -25 -6
0 -23 -13 -38 -30 -15 -16 -33 -30 -39 -30 -6 0 -11 -4 -11 -10 0 -5 -5 -10
-11 -10 -7 0 -27 -16 -46 -35 -19 -19 -39 -35 -45 -35 -6 0 -21 -10 -33 -22
-29 -29 -67 -61 -108 -90 -18 -12 -52 -42 -77 -65 -24 -24 -48 -43 -52 -43 -5
0 -16 -7 -25 -15 -10 -9 -38 -32 -62 -53 -24 -20 -54 -47 -67 -59 -13 -13 -26
-23 -29 -23 -4 0 -30 -22 -58 -50 -28 -27 -56 -50 -61 -50 -5 0 -21 -12 -36
-27 -15 -16 -47 -44 -71 -63 -24 -19 -56 -47 -71 -62 -15 -16 -31 -28 -35 -28
-4 0 -42 -32 -83 -70 -117 -110 -123 -115 -126 -113 -2 2 -25 -18 -51 -43 -27
-25 -62 -58 -79 -75 -17 -16 -34 -29 -38 -29 -3 0 -21 -15 -39 -32 -103 -101
-176 -168 -185 -168 -6 0 -14 -9 -17 -20 -3 -11 -11 -20 -16 -20 -11 0 -49
-34 -191 -172 -50 -49 -92 -88 -94 -88 -2 0 -30 -26 -62 -57 -89 -87 -284
-274 -323 -309 -19 -18 -121 -120 -228 -228 -106 -108 -197 -196 -203 -196 -5
0 -6 -4 -3 -10 3 -5 -1 -10 -9 -10 -9 0 -16 -5 -16 -10 0 -6 -42 -54 -92 -107
-51 -53 -121 -126 -156 -162 -34 -36 -104 -110 -155 -163 -50 -53 -110 -118
-132 -143 -22 -25 -67 -75 -100 -109 -69 -73 -133 -145 -155 -174 -29 -38
-135 -156 -168 -186 -17 -17 -32 -34 -32 -38 0 -4 -10 -18 -22 -30 -43 -44
-123 -139 -136 -161 -8 -12 -24 -30 -37 -39 -22 -17 -24 -16 -49 7 -14 13 -43
36 -63 52 -21 15 -45 35 -53 43 -8 8 -27 21 -42 29 -15 8 -26 17 -23 20 2 4
-8 12 -23 19 -15 6 -49 32 -76 57 -26 25 -52 45 -57 45 -5 0 -22 12 -38 28
-45 42 -70 62 -79 62 -4 0 -27 20 -52 45 -25 24 -51 44 -57 45 -7 0 -13 5 -13
10 0 6 -5 10 -11 10 -7 0 -19 8 -28 18 -9 10 -27 25 -41 33 -14 9 -38 28 -55
42 -16 14 -46 40 -65 56 -19 17 -41 31 -47 31 -7 0 -13 5 -13 10 0 6 -5 10
-10 10 -6 0 -23 12 -38 26 -15 14 -40 32 -55 40 -15 8 -25 19 -22 24 3 5 -3
11 -13 14 -10 3 -38 24 -62 46 -25 22 -48 40 -52 40 -4 0 -13 6 -20 13 -7 7
-29 24 -48 37 -37 26 -73 55 -100 80 -8 9 -34 29 -55 45 -22 17 -51 40 -65 53
-14 12 -29 22 -34 22 -5 0 -19 11 -32 25 -13 14 -28 25 -34 25 -6 0 -13 7 -16
15 -4 8 -12 15 -20 15 -8 0 -14 5 -14 10 0 6 -4 10 -10 10 -5 0 -22 12 -38 28
-32 30 -48 42 -107 87 -22 16 -42 33 -43 37 -2 4 -8 8 -13 8 -10 0 -44 26 -68
53 -8 9 -20 17 -26 17 -5 0 -28 18 -50 40 -22 21 -46 39 -53 40 -7 0 -15 7
-18 15 -3 8 -22 25 -42 37 -21 12 -50 34 -66 50 -17 15 -34 28 -39 28 -5 0
-17 8 -26 19 -9 10 -39 36 -66 56 -28 21 -51 42 -53 47 -2 4 -8 8 -13 8 -6 0
-22 11 -37 25 -15 14 -32 25 -39 25 -7 0 -13 5 -13 10 0 18 -47 10 -72 -12
-13 -13 -42 -36 -64 -53 -21 -16 -49 -39 -61 -51 -12 -12 -42 -37 -67 -55 -25
-18 -46 -36 -46 -41 0 -4 -3 -7 -7 -6 -8 3 -25 -9 -86 -66 -22 -20 -43 -36
-48 -36 -5 0 -9 -3 -9 -7 0 -5 -17 -19 -37 -33 -21 -14 -50 -37 -65 -51 -16
-15 -40 -35 -54 -45 -15 -11 -32 -25 -39 -31 -8 -7 -17 -13 -22 -13 -4 0 -14
-9 -21 -20 -7 -11 -17 -20 -23 -20 -7 0 -22 -10 -34 -22 -28 -29 -75 -68 -81
-68 -3 0 -16 -10 -30 -22 -47 -43 -60 -54 -99 -83 -22 -17 -58 -47 -80 -67
-22 -21 -43 -38 -47 -38 -24 0 -1 -48 45 -94 48 -50 265 -271 556 -569 68 -70
128 -127 132 -127 5 0 8 -3 7 -7 -1 -5 111 -122 250 -261 139 -139 252 -256
252 -260 0 -4 10 -14 21 -22 24 -17 51 -44 89 -88 14 -17 28 -28 33 -25 4 2 7
-3 7 -11 0 -8 14 -23 30 -33 17 -9 33 -25 36 -35 3 -9 14 -20 25 -23 10 -4 19
-11 19 -16 0 -10 59 -69 70 -69 3 -1 23 -25 45 -55 22 -30 43 -55 46 -55 11 0
119 -110 119 -120 0 -5 4 -10 9 -10 6 0 49 -41 98 -92 48 -50 178 -183 288
-294 110 -111 209 -213 221 -226 11 -13 36 -37 55 -54 19 -18 48 -47 65 -65
17 -19 50 -53 75 -75 24 -23 51 -51 59 -63 8 -11 18 -21 21 -21 7 0 69 -58 69
-65 0 -2 81 -86 180 -187 99 -101 272 -276 383 -389 111 -113 343 -350 516
-526 173 -176 327 -325 343 -331 26 -9 28 -8 34 16 3 15 9 35 15 44 5 10 9 27
9 38 0 11 4 20 10 20 5 0 13 18 16 40 4 22 11 43 15 46 5 3 9 12 9 21 0 9 8
25 17 35 9 11 18 26 19 36 3 17 13 40 50 114 13 27 24 55 24 63 0 8 5 15 10
15 6 0 10 9 10 19 0 11 5 21 10 23 6 2 13 17 16 33 3 16 9 32 13 35 5 3 11 15
15 28 4 12 11 22 15 22 4 0 7 10 8 21 1 12 9 29 17 38 8 9 14 20 14 24 0 11
24 71 32 77 13 11 48 88 43 94 -4 3 -1 6 5 6 7 0 12 8 12 18 0 11 9 27 20 37
11 10 20 26 20 36 0 10 5 21 10 24 6 3 10 15 10 26 0 10 3 19 8 19 7 0 19 19
46 80 9 19 20 42 26 50 6 8 24 43 41 77 17 34 37 68 45 74 8 6 14 20 14 30 0
10 5 21 10 24 6 3 10 15 10 26 0 10 4 19 8 19 5 0 15 12 22 28 8 15 22 39 32
54 10 14 18 33 18 41 0 8 6 17 13 20 6 2 18 22 26 43 8 22 17 41 20 44 10 8
41 59 71 115 29 55 53 96 94 165 15 25 29 53 33 63 3 9 9 17 13 17 4 0 15 20
26 45 10 25 22 45 26 45 4 0 8 5 8 11 0 6 11 24 25 41 14 16 25 35 25 43 0 7
7 18 16 26 9 7 23 30 31 51 8 21 19 38 24 38 5 0 9 7 9 15 0 8 3 15 8 15 4 0
18 23 31 50 13 28 27 50 31 50 4 0 11 11 14 25 4 14 11 25 16 25 6 0 10 6 10
13 0 6 11 25 25 41 14 16 25 34 25 39 0 6 11 25 25 43 14 18 25 37 25 43 0 6
4 11 9 11 5 0 14 13 19 29 6 16 19 38 30 49 11 11 23 29 27 41 3 11 14 28 23
38 9 9 17 19 17 22 1 13 40 71 48 71 4 0 5 5 2 10 -3 6 -1 10 5 10 6 0 17 15
25 33 7 17 30 53 50 80 20 26 32 47 28 47 -4 0 0 5 10 11 9 6 15 14 12 20 -4
5 1 12 9 15 9 3 16 12 16 19 0 7 7 15 15 19 8 3 15 15 15 26 0 12 5 18 10 15
6 -3 10 3 10 13 0 11 7 22 15 25 8 4 21 21 28 39 8 18 21 39 30 47 10 7 17 20
17 27 0 8 5 14 10 14 6 0 10 7 10 15 0 8 5 15 10 15 6 0 10 7 10 15 0 8 5 15
10 15 6 0 10 5 10 10 0 6 4 16 10 23 47 57 60 76 60 86 0 6 4 11 9 11 5 0 14
13 21 29 6 16 22 39 36 52 13 12 24 29 24 37 0 8 14 28 30 44 17 15 30 32 30
37 0 4 16 29 35 54 19 25 35 50 35 54 0 5 9 15 20 23 11 8 20 20 20 27 0 7 5
13 10 13 6 0 10 6 10 13 0 7 16 30 35 52 19 22 35 45 35 52 0 6 3 13 8 15 11
5 62 75 62 86 0 6 4 12 8 14 9 3 59 70 109 143 15 22 37 50 50 61 13 12 23 26
23 31 0 5 8 18 18 29 9 10 32 39 50 64 138 187 183 247 195 260 39 43 87 108
87 118 0 6 8 17 18 24 10 7 23 20 28 29 11 21 59 80 102 127 17 20 32 39 32
43 0 4 16 27 35 51 20 23 46 57 59 73 14 17 42 51 63 76 21 25 50 61 65 80 14
19 41 50 58 69 18 19 39 46 48 60 9 14 26 36 39 50 13 14 67 77 119 140 86
102 127 152 192 227 10 12 27 33 37 47 10 14 22 23 27 20 4 -3 5 2 2 10 -4 10
-1 16 10 16 8 0 21 10 27 23 7 12 20 31 31 42 54 58 95 105 93 105 -2 0 12 17
32 38 19 20 56 62 82 92 25 30 60 69 76 86 41 43 126 136 205 224 142 157 495
525 680 708 294 290 533 518 573 547 33 24 35 55 7 110 -11 22 -20 47 -20 57
0 10 -4 18 -10 18 -5 0 -10 9 -10 20 0 11 -4 20 -10 20 -5 0 -10 9 -10 20 0
11 -9 35 -20 55 -11 19 -17 35 -13 35 3 0 -1 8 -9 18 -17 19 -33 61 -30 78 1
5 -7 20 -18 32 -11 12 -20 30 -20 41 0 11 -4 23 -10 26 -5 3 -10 15 -10 25 0
10 -7 25 -15 34 -8 8 -15 22 -15 30 0 22 -98 23 -106 1z"/>
<path d="M1120 8920 c-8 -5 -18 -6 -22 -4 -5 3 -15 -2 -24 -10 -9 -10 -33 -16
-59 -16 -24 0 -46 -4 -49 -9 -3 -5 -20 -11 -38 -14 -50 -8 -67 -12 -74 -20 -4
-4 -16 -7 -26 -7 -10 0 -18 -4 -18 -10 0 -5 -8 -10 -18 -10 -23 0 -80 -27
-106 -49 -10 -9 -21 -15 -25 -15 -11 3 -80 -35 -88 -48 -4 -7 -22 -21 -39 -30
-17 -9 -45 -30 -63 -45 -47 -40 -181 -177 -181 -185 0 -3 -12 -20 -27 -36 -38
-40 -61 -71 -76 -104 -6 -15 -15 -28 -19 -28 -5 0 -8 -6 -8 -14 0 -7 -7 -19
-15 -26 -8 -7 -13 -16 -10 -20 2 -4 -4 -15 -15 -25 -11 -10 -20 -28 -20 -41 0
-13 -5 -26 -10 -29 -6 -3 -10 -17 -10 -31 0 -13 -4 -24 -10 -24 -5 0 -12 -17
-16 -37 -4 -21 -10 -43 -15 -48 -4 -6 -9 -31 -11 -55 -2 -29 -7 -44 -15 -43
-10 2 -13 -694 -13 -3415 0 -2993 2 -3421 15 -3438 8 -10 15 -34 15 -52 0 -18
4 -41 9 -50 5 -9 11 -33 15 -52 3 -19 10 -36 15 -38 6 -2 11 -10 11 -18 0 -8
4 -22 9 -32 5 -9 20 -39 32 -67 12 -27 25 -52 28 -55 3 -3 15 -23 26 -45 11
-22 29 -50 40 -63 11 -13 20 -27 20 -31 0 -7 12 -20 113 -129 23 -26 42 -50
42 -54 0 -4 7 -8 16 -8 8 0 12 -4 9 -10 -3 -5 -1 -10 4 -10 6 0 19 -8 30 -18
10 -9 33 -28 51 -42 17 -14 38 -31 45 -37 8 -7 18 -13 24 -13 6 0 11 -4 11 -9
0 -5 8 -11 17 -15 10 -3 41 -19 68 -35 28 -16 56 -30 63 -30 7 -1 20 -8 28
-16 13 -12 67 -32 113 -41 8 -1 17 -8 21 -14 4 -7 25 -14 46 -16 21 -2 52 -9
69 -16 42 -18 6574 -19 6596 -2 8 7 30 14 50 17 20 2 43 8 50 13 21 13 82 34
102 34 9 0 17 4 17 9 0 9 38 24 53 22 4 -1 10 6 13 14 4 8 11 15 18 15 19 0
86 37 79 44 -4 3 3 6 14 6 12 0 23 3 25 8 2 4 37 33 78 64 41 32 89 71 105 88
17 17 45 45 63 62 17 17 32 35 32 40 0 5 9 19 20 31 50 54 80 93 80 105 0 6 4
12 10 12 5 0 12 11 16 25 3 14 10 25 15 25 5 0 9 9 9 20 0 11 3 20 8 20 10 0
47 76 63 130 7 25 19 52 26 61 7 8 13 30 13 47 0 17 5 34 10 37 6 3 10 28 10
54 0 26 6 53 12 59 8 8 15 50 17 100 3 48 6 1077 8 2287 3 1684 1 2205 -9
2223 -17 33 -47 28 -63 -10 -7 -18 -22 -42 -32 -53 -10 -11 -29 -36 -43 -55
-13 -19 -27 -37 -30 -40 -3 -3 -19 -23 -36 -45 -16 -22 -33 -45 -39 -51 -5 -6
-17 -22 -25 -34 -8 -13 -23 -30 -32 -39 -10 -8 -18 -21 -18 -28 0 -7 -4 -13
-8 -13 -4 0 -15 -12 -24 -27 -9 -16 -25 -38 -35 -50 -10 -12 -36 -47 -58 -79
-22 -31 -45 -62 -50 -68 -6 -6 -20 -27 -32 -46 -12 -19 -30 -44 -40 -55 -10
-11 -27 -33 -37 -50 -11 -16 -25 -34 -33 -38 -7 -4 -13 -13 -13 -20 0 -7 -10
-23 -23 -37 l-22 -25 0 -1815 c0 -1746 -1 -1817 -19 -1875 -10 -33 -22 -68
-27 -77 -5 -10 -9 -25 -9 -33 0 -8 -4 -15 -8 -15 -5 0 -17 -17 -26 -38 -27
-60 -146 -177 -208 -206 -21 -9 -38 -21 -38 -26 0 -6 -11 -10 -24 -10 -14 0
-28 -4 -31 -10 -3 -5 -21 -10 -39 -10 -17 0 -37 -5 -42 -10 -14 -14 -6274 -14
-6288 0 -6 6 -25 10 -43 10 -18 0 -33 4 -33 8 0 4 -10 8 -22 9 -11 1 -24 6
-27 11 -3 5 -24 17 -46 28 -61 29 -185 140 -185 167 0 8 -4 17 -8 19 -14 5
-62 97 -62 118 0 11 -4 20 -9 20 -9 0 -19 33 -26 89 -2 17 -9 39 -14 50 -8 14
-11 1000 -11 3218 0 2759 2 3203 15 3238 8 22 14 57 15 77 0 20 6 43 13 50 6
7 13 22 15 33 4 27 54 125 64 125 4 0 8 4 8 10 0 13 96 110 140 141 49 34 100
60 100 52 0 -5 4 -2 9 5 5 8 20 15 35 15 14 1 26 5 26 10 0 4 9 7 19 7 11 0
21 5 23 10 2 7 919 10 2781 10 1843 0 2777 3 2777 10 0 6 6 10 13 10 12 0 40
23 124 101 17 16 34 29 38 29 3 0 16 10 28 23 19 20 86 77 176 152 13 11 45
38 71 60 26 22 64 54 85 70 20 17 55 47 77 68 22 20 44 37 49 37 4 0 29 20 54
44 50 49 58 80 23 90 -38 10 -6311 7 -6328 -4z"/>
</g>
</svg>
